<svg width="62" height="21" viewBox="0 0 62 21" fill="none" xmlns="http://www.w3.org/2000/svg">
<g id="Group">
<path id="Vector" d="M12.956 5.06582C14.1485 5.06582 15.1152 4.09914 15.1152 2.90667C15.1152 1.7142 14.1485 0.747498 12.956 0.747498C11.7636 0.747498 10.7969 1.7142 10.7969 2.90667C10.7969 4.09914 11.7636 5.06582 12.956 5.06582Z" fill="#121212"/>
<path id="Vector_2" d="M44.8626 8.58443C43.5832 7.30493 41.9038 6.66517 40.1445 6.58521H39.7447C37.9854 6.58521 36.306 7.30495 35.0265 8.50448C33.7471 9.78399 33.0273 11.4633 33.0273 13.2226V13.3826C33.0273 15.1419 33.7471 16.8213 34.9466 18.1008C36.2261 19.3803 37.9054 20.1 39.6647 20.1H40.0645C41.8239 20.1 43.5032 19.3802 44.7827 18.1807C46.0622 16.9812 46.7019 15.2219 46.7819 13.4625V13.3026C46.8618 11.5433 46.1421 9.86393 44.8626 8.58443ZM42.7035 13.9424C42.7035 14.3422 42.7035 14.6621 42.5436 14.982C42.3836 15.3018 42.2237 15.6217 41.9038 15.8616C41.6639 16.1015 41.344 16.3414 41.0242 16.5014C40.7043 16.6613 40.3044 16.7413 39.9846 16.7413C39.5847 16.7413 39.2649 16.6613 38.945 16.5014C38.6251 16.3414 38.3052 16.1815 38.0653 15.8616C37.8254 15.6217 37.5855 15.3018 37.4256 14.982C37.2657 14.6621 37.1857 14.2622 37.1857 13.9424V12.9028C37.1857 12.1831 37.5056 11.4633 37.9854 10.9835C38.4652 10.5037 39.1849 10.1838 39.9046 10.1838C40.6243 10.1838 41.344 10.5037 41.9038 10.9835C42.3836 11.4633 42.7035 12.1831 42.7035 12.9028V13.9424Z" fill="#121212"/>
<path id="Vector_3" d="M9.19635 6.58527H6.15756V6.2654C6.15756 5.38574 6.31749 4.90593 6.63736 4.66602C6.95724 4.42611 7.43705 4.26617 8.07679 4.26617C8.23673 4.26617 8.71654 4.26618 9.11638 4.34615V0.907489C8.47664 0.82752 7.51701 0.827515 7.19714 0.827515C6.07758 0.827515 5.19794 0.987453 4.5582 1.22736C3.91845 1.46727 3.35868 1.86711 2.95883 2.34692C2.55899 2.82674 2.31908 3.38652 2.23911 4.02628C2.07918 4.66603 2.07918 5.38575 2.07918 6.10548V6.58527H0.719721H0V10.1839H2.07918V20.1001H6.15756V10.1839H9.19635V6.58527Z" fill="#0052D9"/>
<path id="Vector_4" d="M60.056 8.58443C58.8565 7.30493 57.0972 6.66517 55.3379 6.58521H54.938C53.1787 6.58521 51.4994 7.30495 50.2199 8.50448C48.9404 9.78399 48.2207 11.4633 48.2207 13.2226V13.3826C48.2207 15.1419 48.9404 16.8213 50.1399 18.1008C51.4194 19.3803 53.0988 20.1 54.8581 20.1H55.2579C57.0172 20.1 58.6965 19.3802 59.976 18.1807C61.2555 16.9812 61.8953 15.2219 61.9752 13.4625V13.3026C61.9752 11.5433 61.2555 9.86393 60.056 8.58443ZM57.8969 13.9424C57.8969 14.3422 57.8169 14.6621 57.657 14.982C57.497 15.3018 57.3371 15.6217 57.0172 15.8616C56.7773 16.1015 56.4574 16.3414 56.1376 16.5014C55.8177 16.6613 55.4178 16.7413 55.098 16.7413C54.6981 16.7413 54.3783 16.6613 54.0584 16.5014C53.7385 16.3414 53.4186 16.1815 53.1787 15.8616C52.9388 15.6217 52.6989 15.3018 52.619 14.982C52.459 14.6621 52.379 14.2622 52.379 13.9424V12.9028C52.379 12.1831 52.6989 11.4633 53.1787 10.9835C53.7385 10.5037 54.3783 10.1838 55.1779 10.1838C55.8976 10.1838 56.6174 10.5037 57.1771 10.9835C57.657 11.4633 57.9768 12.1831 57.9768 12.9028L57.8969 13.9424Z" fill="#121212"/>
<path id="Vector_5" d="M31.4268 10.1039C31.2669 9.38414 31.027 8.82434 30.7071 8.26456C30.3872 7.78475 29.9074 7.30493 29.2677 7.06502C28.6279 6.74515 27.9082 6.58521 27.0286 6.58521C26.069 6.58521 25.2693 6.74515 24.5496 7.145C23.9098 7.54484 23.35 8.10462 22.8702 8.98428C22.4704 8.18459 21.9906 7.54485 21.2709 7.22497C20.5512 6.82513 19.7515 6.66518 18.7918 6.66518C18.312 6.66518 17.8322 6.74516 17.4324 6.82513C17.0326 6.98506 16.6327 7.14501 16.3128 7.30495C15.993 7.46488 15.6731 7.70478 15.4332 7.94469C15.2732 8.10463 15.1133 8.34454 14.9534 8.50448V6.58521H10.875V19.7001V20.1H14.9534V13.5425C14.9534 13.1427 14.9534 12.6629 15.0333 12.263C15.1133 11.8632 15.1933 11.5433 15.3532 11.2234C15.5132 10.9035 15.7531 10.6636 16.0729 10.5037C16.3928 10.3438 16.7927 10.1838 17.3524 10.1838C17.8322 10.1838 18.1521 10.2638 18.392 10.5037C18.6319 10.7436 18.7919 10.9835 18.9518 11.3034C19.0318 11.6233 19.1117 11.9431 19.1117 12.263C19.1117 12.5829 19.1117 12.9028 19.1117 13.1427V20.1H23.1901V13.1427C23.1901 12.7428 23.2701 12.343 23.35 12.0231C23.43 11.6233 23.59 11.3834 23.7499 11.0635C23.9098 10.8236 24.2297 10.5837 24.4696 10.4237C24.7895 10.2638 25.1893 10.1838 25.6691 10.1838C26.3089 10.1838 26.7887 10.4237 27.0286 10.8236C27.2685 11.3034 27.4284 11.7832 27.4284 12.423V20.1H31.5068V12.343C31.6667 11.5433 31.5868 10.7436 31.4268 10.1039Z" fill="#121212"/>
</g>
</svg>
